<?xml version="1.0" standalone="no"?>
<!DOCTYPE svg PUBLIC "-//W3C//DTD SVG 20010904//EN"
 "http://www.w3.org/TR/2001/REC-SVG-20010904/DTD/svg10.dtd">
<svg version="1.0" xmlns="http://www.w3.org/2000/svg"
 width="512.000000pt" height="512.000000pt" viewBox="0 0 512.000000 512.000000"
 preserveAspectRatio="xMidYMid meet">

<g transform="translate(0.000000,512.000000) scale(0.100000,-0.100000)"
fill="#000000" stroke="none">
<path d="M2295 4859 c-462 -60 -916 -282 -1248 -613 -402 -399 -627 -944 -627
-1516 0 -562 210 -1082 600 -1484 291 -300 622 -492 1026 -595 273 -70 627
-79 916 -25 654 123 1226 561 1522 1167 402 821 234 1816 -415 2457 -337 333
-788 551 -1259 610 -100 12 -415 11 -515 -1z m368 -938 c17 -11 292 -280 609
-598 524 -526 577 -582 588 -623 33 -125 -42 -242 -167 -257 -100 -11 -85 -24
-630 520 l-503 502 -497 -497 c-274 -273 -511 -502 -526 -507 -45 -17 -124
-13 -165 8 -93 48 -130 139 -101 246 9 34 93 123 577 608 533 535 609 607 658
620 37 11 124 -2 157 -22z m-26 -921 c42 -16 1190 -1165 1214 -1215 79 -168
-107 -342 -276 -258 -16 8 -251 236 -522 506 -271 270 -494 489 -497 487 -795
-793 -979 -973 -1018 -990 -135 -61 -281 33 -280 181 1 27 9 64 21 86 23 45
1151 1173 1196 1197 35 18 121 21 162 6z"/>
</g>
</svg>
